<svg xmlns="http://www.w3.org/2000/svg" width="270.001" height="48"><g data-name="그룹 24922"><g data-name="그룹 24921"><g data-name="그룹 24919" fill="#231f20"><path data-name="패스 19319" d="M154.091 5.42V43.4h6.27V22.41h6.5v-4.55h-6.5V5.42z"/><path data-name="패스 19320" d="M133.531 4.94c-8.53 0-15.44 8.36-15.44 18.68s6.91 18.68 15.44 18.68 15.44-8.36 15.44-18.68-6.91-18.68-15.44-18.68zm0 33.59c-5.07 0-9.18-6.67-9.18-14.9s4.11-14.9 9.18-14.9 9.18 6.67 9.18 14.9-4.11 14.9-9.18 14.9z"/><path data-name="패스 19321" d="M112.881 21.22h-20.13v-3.15h17.48v-3.61h-35.51V9.59h35.51V5.98h-41.78v8.29a4 4 0 004.18 3.8h13.28v3.15h-20.13v3.8h47.1z"/><path data-name="패스 19322" d="M68.151 35.83c0 5.04 9.49 9.12 21.19 9.12s21.19-4.08 21.19-9.12-9.49-9.12-21.19-9.12-21.19 4.08-21.19 9.12zm35.75-.09c0 3.09-6.52 5.6-14.55 5.6s-14.56-2.51-14.56-5.6 6.52-5.6 14.56-5.6 14.55 2.51 14.55 5.6z"/><path data-name="패스 19323" d="M263.011 21.05h6.44v-3.61h-6.44v-3.99h6.44V9.84h-6.44V5.41h-6.27V28.2h6.27z"/><path data-name="사각형 28214" d="M208.581 5.41h6.08v37.98h-6.08z"/><path data-name="패스 19324" d="M205.221 43.4V5.41h-5.77v12.45h-6.81v4.55h6.81V43.4z"/><path data-name="패스 19325" d="M236.001 4.96c-8.62 0-15.61 5-15.61 11.17s6.99 11.17 15.61 11.17 15.61-5 15.61-11.17-6.99-11.17-15.61-11.17zm-.01 18.75c-5.17 0-9.37-3.4-9.37-7.6s4.2-7.6 9.37-7.6 9.37 3.4 9.37 7.6-4.2 7.6-9.37 7.6z"/><path data-name="패스 19326" d="M225.031 33.9h31.72v9.48h6.26V30.1h-37.98z"/><path data-name="패스 19327" d="M183.841 30.16a30.618 30.618 0 0010.47 8.25l2.05-3.58a20.974 20.974 0 01-9.05-10.11 24.468 24.468 0 002.44-10.54V9.51a3.31 3.31 0 00-3.31-3.32h-13.77v3.8h10.63v4.2c0 9.1-4.76 17.9-12.96 21.21l1.72 3.09a28.306 28.306 0 0011.78-8.32z"/></g><g data-name="그룹 24920" fill="#00abcc"><path data-name="패스 19328" d="M17.721 47.65s.18-9.2-1.01-12.63c-1.21-3.43-2.56-8.95-11.5-14.71-3.12-2.02-4.15-1.83-4.47-1.65s-.82 1.02-.73 4.72-.18 13.91 4.17 18.4c4.37 4.49 7.73 5.56 13.54 5.87z"/><path data-name="패스 19329" d="M24.791 23.36a38.356 38.356 0 0118.71-15.51c1-.3 1.49-.62 1.58-1.44.09-.79-1.19-2.49-4.91-4.26C35.091-.27 24.791.01 24.791.01s-10.29-.28-15.37 2.13c-3.71 1.77-5.01 3.47-4.92 4.26.09.82.57 1.15 1.58 1.44a38.309 38.309 0 0118.7 15.51z"/><path data-name="패스 19330" d="M24.791 48c1.84 0 3.54-.08 5.09-.19 0 0 .18-8.28-.33-11.36-.56-3.42-1.74-8.83-4.76-13-3 4.17-4.19 9.58-4.75 13-.49 3.08-.32 11.36-.32 11.36 1.54.1 3.25.19 5.07.19z"/><path data-name="패스 19331" d="M31.861 47.65s-.19-9.2 1.02-12.63 2.56-8.95 11.51-14.71c3.12-2.02 4.15-1.83 4.47-1.65s.82 1.02.72 4.72.19 13.91-4.17 18.4-7.74 5.56-13.54 5.87z"/><path data-name="패스 19332" d="M3.101 10.6a1.414 1.414 0 01-1.05-1.43 1.487 1.487 0 011.49-1.49 1.581 1.581 0 01.59.13 32.278 32.278 0 0110.95 8.63l-.11.17a35.585 35.585 0 00-11.87-6z"/><path data-name="패스 19333" d="M1.591 14.05a1.508 1.508 0 01-1.13-1.4 1.492 1.492 0 011.43-1.56 1.679 1.679 0 01.67.14s6.77 2.74 11 7.92l-.12.14a32.844 32.844 0 00-11.85-5.24z"/><path data-name="패스 19334" d="M1.301 17.8a1.453 1.453 0 01.31-2.86 1.734 1.734 0 01.58.1s6.52 2.66 9.92 6.78l-.11.18a27.98 27.98 0 00-10.69-4.2z"/><path data-name="패스 19335" d="M46.481 10.6a1.42 1.42 0 001.07-1.43 1.5 1.5 0 00-1.51-1.49 1.71 1.71 0 00-.59.13 32.179 32.179 0 00-10.95 8.63l.11.17a35.68 35.68 0 0111.87-6z"/><path data-name="패스 19336" d="M48.001 14.05a1.511 1.511 0 001.12-1.4 1.486 1.486 0 00-1.43-1.56 1.679 1.679 0 00-.67.14s-6.77 2.74-11.02 7.92l.13.14a32.853 32.853 0 0111.87-5.25z"/><path data-name="패스 19337" d="M48.291 17.8a1.441 1.441 0 001.09-1.34 1.421 1.421 0 00-1.37-1.52 1.683 1.683 0 00-.59.1s-6.53 2.66-9.93 6.78l.12.18a27.862 27.862 0 0110.69-4.2z"/></g></g></g></svg>